<svg xmlns:xlink="http://www.w3.org/1999/xlink" data-v-e70ad470="" fill="none" viewBox="0 0 18 18" xmlns="http://www.w3.org/2000/svg" class="mr-3" width="18" height="18"><g data-v-e70ad470="" clip-rule="evenodd" fill-rule="evenodd" fill="#D9D3CC"><path data-v-e70ad470="" d="m8.99996 3.48c1.69004 0 2.83004.73 3.48004 1.34l2.54-2.48c-1.56-1.45-3.59-2.34-6.02004-2.34-3.52 0-6.56 2.02-8.039999 4.96l2.909999 2.26c.73-2.17 2.75-3.74 5.13-3.74z" fill="#EA4335"></path><path data-v-e70ad470="" d="m17.64 9.2c0-.74-.06-1.28-.19-1.84h-8.45v3.34h4.96c-.1.83-.64 2.08-1.84 2.92l2.84 2.2c1.7-1.57 2.68-3.88 2.68-6.62z" fill="#4285F4"></path><path data-v-e70ad470="" d="m3.88 10.78c-.19-.56-.3-1.15999-.3-1.77999s.11-1.22.29-1.78l-2.91-2.26c-.61 1.22-.96 2.59-.96 4.04 0 1.44999.35 2.81999.96 4.03999z" fill="#FBBC05"></path><path data-v-e70ad470="" d="m9.00021 18c2.42999 0 4.46999-.8 5.95999-2.18l-2.84-2.2c-.76.53-1.78.9-3.11999.9-2.38 0-4.4-1.57-5.12-3.74l-2.909995 2.26c1.479995 2.94 4.509995 4.96 8.029995 4.96z" fill="#34A853"></path></g></svg>