<svg xmlns="http://www.w3.org/2000/svg" width="256" height="256"><path fill-opacity=".016" d="M0 128.004v128.004l128.25-.254 128.25-.254.254-127.75L257.008 0H0v128.004m.485.496c0 70.4.119 99.053.265 63.672.146-35.38.146-92.98 0-128C.604 29.153.485 58.1.485 128.5" fill="#1976D2" fill-rule="evenodd"/><path fill-opacity=".346" d="M16 2.079C9.959 4.81 5.252 9.451 2.387 15.5l-2.367 5L.032 128c.012 105.955.041 107.565 2.047 112 2.731 6.041 7.372 10.748 13.421 13.613l5 2.367 107.5-.012c105.955-.012 107.565-.041 112-2.047 6.21-2.807 10.684-7.36 14.101-14.348l2.899-5.927v-107.49c0-59.119-.291-107.198-.647-106.843-.355.356-1.65-1.481-2.877-4.083-2.731-5.79-7.51-10.454-13.476-13.151C235.564.073 233.968.044 128 .044S20.436.073 16 2.079M.482 128c0 59.675.121 84.087.268 54.25.147-29.838.147-78.663 0-108.5C.603 43.912.482 68.325.482 128m111.623-79.417c-16.006 4.304-28.624 17.671-32.184 34.095-.575 2.652-1.299 16.635-1.609 31.072L77.748 140H108l.035-20.25c.04-23.421 1.329-32.566 5.852-41.527 6.013-11.911 18.633-21.344 32.89-24.581 5.394-1.225 5.407-1.237 2.673-2.483-8.938-4.072-27.119-5.327-37.345-2.576M175.104 78.5c-.095 1.875-.802 2-11.353 2-6.271 0-11.625-.443-12.095-1-.472-.559-.523-.117-.116 1 .598 1.643 2.081 28.861 2.384 43.75L154 128h24.258l-.569-22.25c-.312-12.238-.999-23.825-1.526-25.75-.558-2.036-1.001-2.664-1.059-1.5" fill="#1976D2" fill-rule="evenodd"/><path fill-opacity=".701" d="M17.969 1.536C12.029 3.367 6.088 8.557 2.992 14.621L.5 19.5v217l3.084 5.5c3.395 6.054 9.989 11.269 16.447 13.008 2.57.692 39.14.946 110.158.764L236.5 255.5l5.423-3c5.607-3.102 9.903-8.001 12.022-13.709.672-1.81 1.634-4.072 2.138-5.027 1.193-2.26 1.231-213.076.039-212.339-.483.298-1.132-.688-1.443-2.191-1.579-7.655-9.753-15.773-18.261-18.135C233.703.345 200.265.031 127.5.075 40.585.128 21.72.38 17.969 1.536M.482 128c0 58.575.121 82.538.268 53.25.147-29.287.147-77.212 0-106.5C.603 45.463.482 69.425.482 128M118 47.066c-11.093 1.658-20.774 6.621-27.554 14.125C85.303 66.885 80.238 78.122 79.04 86.5c-1.202 8.41-1.36 79.446-.181 81.306.632.996 4.063 1.234 14.45 1 12.97-.291 13.636-.21 13.936 1.694.173 1.1.627-15.358 1.007-36.572.724-40.306 1.27-45.782 5.456-54.722 2.714-5.795 11.344-15.691 16.097-18.458l3.01-1.752 5.104 4.034c2.806 2.219 6.656 6.382 8.555 9.252 5.226 7.901 6.494 15.099 6.511 36.968L153 128h25l-.008-19.75c-.011-29.231-2.065-37.871-11.202-47.115-6.549-6.625-18.739-12.042-31.586-14.035-7.855-1.219-9.256-1.222-17.204-.034m35.027 110.184c.059 2.338.336 7.175.615 10.75l.506 6.5 11.676-.5 11.676-.5.285-10.25.285-10.25h-25.151l.108 4.25" fill="#1976D2" fill-rule="evenodd"/><path fill-opacity=".633" d="M15.5 2.871c-5.058 2.31-11.818 9.614-13.618 14.713C.739 20.823.5 39.919.5 128c0 100.104.108 106.78 1.797 111.157 2.166 5.613 9.693 12.987 15.259 14.951 3.275 1.156 22.09 1.392 110.944 1.392h107l4.739-2.334c5.963-2.937 12.435-10.204 13.858-15.56.599-2.258 1.498-4.887 1.997-5.842 1.295-2.481 1.202-209.065-.094-208.264-.55.34-1-.323-1-1.473 0-6.181-7.264-15.762-14.5-19.124-3.821-1.776-8.848-1.859-112.5-1.859-102.951 0-108.705.093-112.5 1.827M.482 128c0 57.475.12 80.987.268 52.25.147-28.738.147-75.763 0-104.5C.602 47.012.482 70.525.482 128m113.152-80.481C95.889 52.018 81.85 66.881 79.071 84.113c-1.52 9.425-2.219 53.536-1.242 78.387 1.01 25.688 2.041 31.139 7.303 38.629L87.5 204.5h34.254l-3.854-5.381c-2.12-2.959-4.876-7.909-6.124-11-2.215-5.483-2.277-6.636-2.578-47.619-.34-46.257.068-51.271 5.007-61.5 3.241-6.712 12.777-17.225 16.776-18.494 2.743-.871 9.477 4.21 14.407 10.868 5.884 7.948 6.787 12.418 7.355 36.405l.503 21.279 12.627-.279 12.627-.279.292-7.747c.161-4.261-.119-15.591-.622-25.177-.853-16.266-1.113-17.857-3.895-23.801-5.516-11.789-11.266-16.479-26.877-21.923-10.753-3.75-24.443-4.696-33.764-2.333M153 166.316c0 15.843-1.22 23.435-4.851 30.184l-2.69 5 13.681-.302 13.681-.301 1.615-3.404c2.35-4.952 3.324-12.064 4.005-29.243l.605-15.25H153v13.316" fill="#1976D2" fill-rule="evenodd"/></svg>